<svg xmlns="http://www.w3.org/2000/svg" width="51.77" height="51.072" viewBox="0 0 51.77 51.072">
  <g id="Group_4987" data-name="Group 4987" transform="translate(-22.443 -30.933)">
    <path id="Path_17019" data-name="Path 17019" d="M76.023,44.678c-.436-1.112-1.123-9.351-2.805-12.854a1.84,1.84,0,0,0-2.725-.424c-.444.431-1.12,1.921-2.311,1.921-1,0-1.183-.737-1.638-1.231a2.713,2.713,0,0,0-2.129-1.14,2.952,2.952,0,0,0-2.249,1.134,3.618,3.618,0,0,1-2.841,1.386,2.87,2.87,0,0,1-2.375-1.083,3.193,3.193,0,0,0-2.7-1.436c-1.272,0-1.833.762-2.545,1.449a3.316,3.316,0,0,1-2.52,1.071,3.121,3.121,0,0,1-2.513-1.159,2.97,2.97,0,0,0-2.368-1.361,2.762,2.762,0,0,0-2.23,1.342,3,3,0,0,1-2.494,1.178v4.863H46.09a1.589,1.589,0,0,1,.479-1.039,1.612,1.612,0,0,1,1.159-.485H58.38a1.639,1.639,0,0,1,1.638,1.524h0a5.377,5.377,0,0,1,5.214,6.691L55.906,82.009H78.164A2.19,2.19,0,0,0,80.348,80C81.053,71.8,80.048,54.951,76.023,44.678Z" transform="translate(-6.343 -0.006)" fill="#e48258"/>
    <path id="Path_17020" data-name="Path 17020" d="M63.581,32.575a2.058,2.058,0,0,0-2.6-1.568,2.234,2.234,0,0,0-1.3,1.077c-.46.731-.769,1.524-1.858,1.524-1.354,0-1.852-.806-2.52-1.531a3.073,3.073,0,0,0-2.52-1.128,3.674,3.674,0,0,0-2.7,1.43,3.784,3.784,0,0,1-2.822,1.228,2.674,2.674,0,0,1-2.419-1.216,2.852,2.852,0,0,0-2.6-1.443A3.1,3.1,0,0,0,39.808,32.3a3.179,3.179,0,0,1-2.52,1.3,2.425,2.425,0,0,1-2.079-1.323,2.883,2.883,0,0,0-1.915-1.317A1.743,1.743,0,0,0,31.436,32.2a71.764,71.764,0,0,0-1.26,8.661,11.351,11.351,0,0,1-1.222,3.95C22,58.276,22.277,74.081,22.548,79.907a2.2,2.2,0,0,0,2.2,2.1H56.268a2.193,2.193,0,0,0,2.186-2.324c-.384-6.255-.957-23.754,3.635-34.879a12.124,12.124,0,0,0,.876-3.351C63.222,38.944,63.852,34.654,63.581,32.575Zm-11.534,7.03a1.638,1.638,0,0,1-1.165.485H42.12a1.645,1.645,0,0,1-1.644-1.644.762.762,0,0,1,.006-.12,1.589,1.589,0,0,1,.479-1.039A1.612,1.612,0,0,1,42.12,36.8h8.762a1.639,1.639,0,0,1,1.638,1.524.762.762,0,0,1,.006.12A1.633,1.633,0,0,1,52.047,39.605Z" transform="translate(0 0)" fill="#f9c092"/>
    <path id="Path_17021" data-name="Path 17021" d="M64.841,50.752H37.1a.822.822,0,1,1,0-1.643H64.841a.822.822,0,0,1,0,1.643Z" transform="translate(-5.122 -6.727)" fill="#f39d78"/>
    <g id="Group_4980" data-name="Group 4980" transform="translate(40.854 59.159)">
      <path id="Path_17022" data-name="Path 17022" d="M52.616,79.059a.945.945,0,0,1-.668-1.613l1.426-1.426a.945.945,0,0,1,1.336,1.336l-1.426,1.426A.941.941,0,0,1,52.616,79.059Z" transform="translate(-51.671 -75.743)" fill="#fcccb6"/>
    </g>
    <g id="Group_4981" data-name="Group 4981" transform="translate(34.16 60.485)">
      <path id="Path_17023" data-name="Path 17023" d="M49.225,78.4a1.913,1.913,0,0,0-2.7,0l-4.92,4.92a1.91,1.91,0,0,0,2.7,2.7l4.92-4.92A1.912,1.912,0,0,0,49.225,78.4Z" transform="translate(-41.045 -77.847)" fill="#d3714f"/>
    </g>
    <g id="Group_4982" data-name="Group 4982" transform="translate(41.835 53.734)">
      <path id="Path_17024" data-name="Path 17024" d="M60.751,69.863a.672.672,0,0,0-.859.1l-1.566,1.566a.276.276,0,0,1-.391-.39l1.6-1.6a.647.647,0,0,0-.915-.915l-1.6,1.6a.276.276,0,0,1-.391-.39L58.2,68.262a.672.672,0,0,0,.1-.859.649.649,0,0,0-.988-.083l-3.463,3.463a2.366,2.366,0,0,0,.183,3.347h0a2.367,2.367,0,0,0,3.348.183l3.463-3.463A.649.649,0,0,0,60.751,69.863Z" transform="translate(-53.228 -67.131)" fill="#ffe1d2"/>
    </g>
    <g id="Group_4984" data-name="Group 4984" transform="translate(37.733 59.094)">
      <g id="Group_4983" data-name="Group 4983" transform="translate(0 0)">
        <path id="Path_17025" data-name="Path 17025" d="M49.156,79.024a.941.941,0,0,1-.668-.277l-1.5-1.5a.945.945,0,1,1,1.336-1.336l1.5,1.5a.945.945,0,0,1-.668,1.613Z" transform="translate(-46.716 -75.639)" fill="#fcccb6"/>
      </g>
    </g>
    <g id="Group_4985" data-name="Group 4985" transform="translate(38.916 60.326)">
      <path id="Path_17026" data-name="Path 17026" d="M56.822,83.118l-4.966-4.966a1.91,1.91,0,1,0-2.7,2.7l4.966,4.966a1.911,1.911,0,1,0,2.7-2.7Z" transform="translate(-48.595 -77.594)" fill="#e48258"/>
    </g>
    <g id="Group_4986" data-name="Group 4986" transform="translate(32.862 54.224)">
      <path id="Path_17027" data-name="Path 17027" d="M44.37,74.771a2.061,2.061,0,0,0,1.478-1.478,4.1,4.1,0,0,0-1.2-4.114,4.97,4.97,0,0,0-2.094-1.185,2.838,2.838,0,0,0-3.483,3.483,4.97,4.97,0,0,0,1.185,2.094A4.1,4.1,0,0,0,44.37,74.771Z" transform="translate(-38.984 -67.907)" fill="#ffe1d2"/>
    </g>
  </g>
</svg>
