<svg xmlns="http://www.w3.org/2000/svg" width="64.741" height="51.873" viewBox="0 0 64.741 51.873">
  <g id="Group_4991" data-name="Group 4991" transform="translate(-16.154 -35.365)">
    <path id="Path_17042" data-name="Path 17042" d="M50.273,46.353a1.015,1.015,0,0,1-.644-1.8l4.271-3.5a1.015,1.015,0,1,1,1.287,1.569l-4.271,3.5A1.007,1.007,0,0,1,50.273,46.353Z" transform="translate(-10.707 -1.764)" fill="#633b4e"/>
    <circle id="Ellipse_477" data-name="Ellipse 477" cx="8.123" cy="8.123" r="8.123" transform="translate(17.857 70.993)" fill="#633b4e"/>
    <circle id="Ellipse_478" data-name="Ellipse 478" cx="8.123" cy="8.123" r="8.123" transform="translate(59.391 70.993)" fill="#633b4e"/>
    <circle id="Ellipse_479" data-name="Ellipse 479" cx="3.069" cy="3.069" r="3.069" transform="translate(22.911 76.047)" fill="#fff"/>
    <circle id="Ellipse_480" data-name="Ellipse 480" cx="3.069" cy="3.069" r="3.069" transform="translate(64.445 76.047)" fill="#fff"/>
    <path id="Path_17043" data-name="Path 17043" d="M29.13,81.87a12.77,12.77,0,0,0-3.093-.4,12.067,12.067,0,0,0-9.62,4.768,1.265,1.265,0,0,0,.689,2l20.446,3.084Z" transform="translate(0 -14.911)" fill="#f49b47"/>
    <path id="Path_17044" data-name="Path 17044" d="M107.011,75.065a3.85,3.85,0,0,0-4.353-1.727l-1.687.691,5.672,6.073C107.244,78.827,108.292,76.892,107.011,75.065Z" transform="translate(-27.433 -12.231)" fill="#ff6363"/>
    <path id="Path_17045" data-name="Path 17045" d="M76.14,61.054h-19.2a11.768,11.768,0,0,1,2.253,7.205A5.555,5.555,0,0,1,53.638,73.8H46.459c-.7,0-5.7-4.6-2.193-15.628,2.1-6.61,2.944-12.246,2.036-15.141a6.107,6.107,0,0,0-5.737-4.4c-.346,0-2.239.034-2.693.095-1.184.2-2.578,2.233-2.578,4.986,0,2.456,1.623,4.689,2.936,4.9.014,0,.034.007.048.007a8.434,8.434,0,0,0,2.658-.142,1.222,1.222,0,0,1,1.353,1.7c-1.84,4.168-5.561,13.727-7.076,17.821.71,1.57,5.243,6.894,6.481,8.876a2.926,2.926,0,0,0,2.47,1.36h41.3a1.568,1.568,0,0,0,1.576-1.5C87.187,73.354,86.4,65.161,76.14,61.054Z" transform="translate(-6.165 -1.055)" fill="#f8b051"/>
    <path id="Path_17046" data-name="Path 17046" d="M85.259,68.295h-19.2c-1.074,0-2.658-1.447-2.658-3.734a2.971,2.971,0,0,1,2.64-2.973l16.969-.567a4.333,4.333,0,0,1,3.21,1.347C88.595,64.964,85.259,68.295,85.259,68.295Z" transform="translate(-15.281 -8.298)" fill="#ffe1d2"/>
    <ellipse id="Ellipse_481" data-name="Ellipse 481" cx="2.114" cy="3.915" rx="2.114" ry="3.915" transform="translate(43.289 35.365)" fill="#ffe1d2"/>
    <path id="Path_17047" data-name="Path 17047" d="M39.7,43.931a8.25,8.25,0,0,1-1.1,4.313.687.687,0,0,1-.923.235A5.684,5.684,0,0,1,35.335,43.8c0-2.348,1.013-4.174,2.046-4.783a.677.677,0,0,1,.893.168A9.368,9.368,0,0,1,39.7,43.931Z" transform="translate(-6.204 -1.15)" fill="#ff6363"/>
    <rect id="Rectangle_3296" data-name="Rectangle 3296" width="17.523" height="13.525" rx="2" transform="translate(60.792 39.667)" fill="#f4bd7a"/>
    <rect id="Rectangle_3297" data-name="Rectangle 3297" width="17.523" height="2.706" rx="1.353" transform="translate(60.792 50.485)" fill="#f49b47"/>
  </g>
</svg>
