<svg xmlns="http://www.w3.org/2000/svg" width="16.192" height="16.196" viewBox="0 0 16.192 16.196">
  <path id="Path_16746" data-name="Path 16746" d="M2043.545,2043.246c.274-.342.482-.6.591-.743a.434.434,0,0,0,.059-.361,2.422,2.422,0,0,1,.558-2.561c1.106-1.158,3.164-2.936,3.9-3.581l3.311,2.587c-.434.861-1.648,3.3-2.489,4.653a2.412,2.412,0,0,1-2.41,1.188.424.424,0,0,0-.331.152c-.164.212-.563.708-1.074,1.343l2.642,3.36a1.665,1.665,0,0,1-.286,2.334,1.707,1.707,0,0,1-1.04.35,1.62,1.62,0,0,1-1.3-.636l-2.177-2.733c-1.047,1.3-1.969,2.458-2.153,2.7a1.691,1.691,0,0,1-1.323.674,1.6,1.6,0,0,1-.994-.353,1.624,1.624,0,0,1-.3-2.368c.266-.342,1.439-1.813,2.642-3.3l-.414-.516-1.334,1.043c-1.274-1.748-3.625-6.379-3.625-8.849,0-1.683,1.18-1.619,1.222-1.619a1.236,1.236,0,0,1,.971.481c.282.355,2.866,3.621,5.353,6.764m-2.356.312,5.542,6.953a.336.336,0,0,0,.467.056h0a.332.332,0,0,0,.057-.467s-8.927-11.294-9.952-12.6c-.047.948.788,3.771,2.662,7.008l1.222-.954Zm1.036,3.444-2.4,3.008c-.115.148-.216.361,0,.531s.4.036.522-.121l2.306-2.886-.426-.531Zm2.588-2.155.948-1.178a1.3,1.3,0,0,1,1.178-.573c.5,0,.981.131,1.408-.557.748-1.206,2.026-3.508,2.026-3.508l-.263-.206-2.031,2.635-.438-.342,1.983-2.672-.275-.214-2.119,2.564-.43-.335,2.049-2.62-.25-.2s-1.907,1.833-2.884,2.855c-.538.563-.3,1.007-.185,1.489a1.3,1.3,0,0,1-.293,1.269l-.85,1.055.425.535Z" transform="translate(-2035.9 -2035.87)" fill="#333" stroke-width="0.2"/>
</svg>
