<svg xmlns="http://www.w3.org/2000/svg" width="13.813" height="17" viewBox="0 0 13.813 17">
  <g id="Group_5669" data-name="Group 5669" transform="translate(20161 -14989)">
    <g id="Path_16714" data-name="Path 16714" transform="translate(-20161 14989)" fill="none">
      <path d="M0,0H10.625a3.188,3.188,0,0,1,3.188,3.188V17H0Z" stroke="none"/>
      <path d="M 1.399998664855957 1.400004386901855 L 1.399998664855957 15.60048389434814 L 12.41289806365967 15.60048389434814 L 12.41289806365967 3.187594413757324 C 12.41289806365967 2.201913833618164 11.61098861694336 1.400004386901855 10.6253080368042 1.400004386901855 L 1.399998664855957 1.400004386901855 M -1.9073486328125e-06 3.814697265625e-06 L 10.6253080368042 3.814697265625e-06 C 12.38576889038086 3.814697265625e-06 13.81289863586426 1.42713451385498 13.81289863586426 3.187594413757324 L 13.81289863586426 17.00048446655273 L -1.9073486328125e-06 17.00048446655273 L -1.9073486328125e-06 3.814697265625e-06 Z" stroke="none" fill="#333"/>
    </g>
    <line id="Line_27" data-name="Line 27" x2="6.375" transform="translate(-20157.281 14994.844)" fill="none" stroke="#333" stroke-width="1.4"/>
    <line id="Line_28" data-name="Line 28" x2="5.313" transform="translate(-20157.281 14998.031)" fill="none" stroke="#333" stroke-width="1.4"/>
  </g>
</svg>
