<svg xmlns="http://www.w3.org/2000/svg" width="14.549" height="21.489" viewBox="0 0 14.549 21.489">
  <path id="Path_17080" data-name="Path 17080" d="M7.244,21.792a5.524,5.524,0,1,1,5.525-5.525A5.525,5.525,0,0,1,7.244,21.792Zm0-12.525a7,7,0,1,0,7,7A7,7,0,0,0,7.244,9.267Zm1.484,7.685,1.516-1.457-2.083-.287-.917-1.892-.917,1.892-2.083.287L5.76,16.952l-.369,2.07,1.853-.992,1.854.992ZM8.794,6.416l-.74-.992,2.717-3.647h1.5Zm4.484-4.639L9.294,7.088,10.049,8.1l4.744-6.325ZM7.658,8.212h1.47L4.335,1.777h-1.5ZM1.826,1.777H.313L5.14,8.212H6.653Z" transform="translate(-0.244 -1.777)" fill="#333"/>
</svg>
